<svg width="1024" height="1024" viewBox="0 0 1024 1024" fill="none" xmlns="http://www.w3.org/2000/svg">
<g clip-path="url(#clip0_967_508)">
<path d="M558.776 152C615.17 152 643.367 152 665.259 162.135C688.817 173.041 707.736 191.96 718.642 215.518C728.776 237.41 728.776 265.607 728.776 322C728.776 378.393 728.776 406.59 718.642 428.482C707.736 452.04 688.817 470.959 665.259 481.865C643.367 492 615.17 492 558.776 492H464.32C407.927 492 379.731 492 357.839 481.865C334.281 470.959 315.361 452.041 304.455 428.482C294.32 406.59 294.32 378.393 294.32 322C294.32 265.607 294.32 237.41 304.455 215.518C315.361 191.96 334.281 173.041 357.839 162.135C379.731 152 407.928 152 464.321 152H558.776Z" fill="#0CBAF7"/>
</g>
<defs>
<clipPath id="clip0_967_508">
<rect width="1024" height="1024" fill="white"/>
</clipPath>
</defs>
</svg>
