<svg width="1024" height="1024" viewBox="0 0 1024 1024" fill="none" xmlns="http://www.w3.org/2000/svg">
<g clip-path="url(#clip0_986_337)">
<path d="M558.646 157C615.039 157 643.236 157 665.128 167.135C688.686 178.041 707.605 196.96 718.511 220.518C728.645 242.41 728.646 270.607 728.646 327C728.646 383.393 728.645 411.59 718.511 433.482C707.605 457.04 688.686 475.959 665.128 486.865C643.236 497 615.039 497 558.646 497H464.189C407.797 497 379.6 497 357.708 486.865C334.15 475.959 315.23 457.041 304.324 433.482C294.19 411.59 294.189 383.393 294.189 327C294.189 270.607 294.19 242.41 304.324 220.518C315.23 196.96 334.15 178.041 357.708 167.135C379.6 157 407.797 157 464.19 157H558.646Z" fill="#0CBAF7"/>
</g>
<defs>
<clipPath id="clip0_986_337">
<rect width="1024" height="1024" fill="white"/>
</clipPath>
</defs>
</svg>
