<svg width="435" height="495" viewBox="0 0 435 495" fill="none" xmlns="http://www.w3.org/2000/svg">
<path d="M293.368 103.62C376.93 156.206 418.711 182.499 429.701 217.687C435.765 237.1 435.765 257.9 429.701 277.313C418.711 312.501 376.93 338.794 293.368 391.38L260.545 412.036C166.931 470.948 120.124 500.404 81.637 493.215C60.4941 489.265 41.1881 478.604 26.5842 462.813C-5.85596e-06 434.068 -3.43852e-06 378.764 1.39632e-06 268.156L3.20211e-06 226.844C8.03696e-06 116.236 1.04544e-05 60.9315 26.5843 32.1869C41.1881 16.3962 60.4941 5.73489 81.637 1.78526C120.124 -5.40446 166.931 24.0517 260.545 82.9639L293.368 103.62Z" fill="url(#paint0_linear_185_2)" fill-opacity="0.95"/>
<defs>
<linearGradient id="paint0_linear_185_2" x1="191" y1="490.5" x2="191" y2="8.50002" gradientUnits="userSpaceOnUse">
<stop stop-color="#00ADF8"/>
<stop offset="1" stop-color="#43BAEE"/>
</linearGradient>
</defs>
</svg>
