<svg width="698" height="681" viewBox="0 0 698 681" fill="none" xmlns="http://www.w3.org/2000/svg">
<path fill-rule="evenodd" clip-rule="evenodd" d="M86.6172 122.342C113.13 120.519 146.101 120.519 189.108 120.519H507.977C550.991 120.519 583.966 120.519 610.481 122.343C599.055 110.06 585.365 99.9199 570.033 92.5458C542.216 79.1665 506.167 79.1665 434.067 79.1665H263.03C190.931 79.1665 154.881 79.1665 127.064 92.5458C111.733 99.9197 98.043 110.059 86.6172 122.342Z" fill="#0CBAF7"/>
<path fill-rule="evenodd" clip-rule="evenodd" d="M16.2596 256.568C0 290.373 0 334.183 0 421.804C0 509.425 0 553.236 16.2596 587.041C32.4398 620.681 59.5782 647.82 93.2185 664C127.024 680.259 170.834 680.259 258.455 680.259H438.635C526.256 680.259 570.067 680.259 603.872 664C637.512 647.82 664.651 620.681 680.831 587.041C697.091 553.236 697.091 509.425 697.091 421.804C697.091 334.183 697.091 290.373 680.831 256.568C664.651 222.927 637.512 195.789 603.872 179.609C570.067 163.349 526.256 163.349 438.635 163.349H258.455C170.834 163.349 127.024 163.349 93.2185 179.609C59.5782 195.789 32.4398 222.927 16.2596 256.568ZM526.843 399.444C518.728 373.488 487.872 354.095 426.162 315.311L398.318 297.811C329.225 254.386 294.678 232.674 266.273 237.98C250.669 240.894 236.421 248.757 225.644 260.403C206.025 281.601 206.025 322.379 206.025 403.935V403.935L206.025 438.934C206.025 520.491 206.025 561.269 225.644 582.467C236.421 594.112 250.669 601.975 266.273 604.89C294.678 610.195 329.225 588.483 398.318 545.058L426.162 527.559C487.872 488.774 518.728 469.382 526.843 443.426C531.32 429.106 531.32 413.763 526.843 399.444Z" fill="#0CBAF7"/>
<path fill-rule="evenodd" clip-rule="evenodd" d="M151.242 42.9651C180.54 38.3985 219.132 38.3985 276.513 38.3985H420.573C477.963 38.3985 516.558 38.3985 545.858 42.9672C535.46 29.3795 521.955 18.3305 506.349 10.8242C483.844 0 454.679 0 396.348 0H300.75C242.42 0 213.254 0 190.75 10.8242C175.144 18.3301 161.64 29.3784 151.242 42.9651Z" fill="#0CBAF7"/>
</svg>
