<?xml version="1.0" encoding="UTF-8"?>
<svg fill="none" viewBox="0 0 1024 1024" xmlns="http://www.w3.org/2000/svg">
<path d="m163 573.8c0-87.621 0-131.43 16.26-165.24 16.18-33.64 43.318-60.779 76.959-76.959 33.805-16.259 77.615-16.259 165.24-16.259h180.18c87.621 0 131.43 0 165.24 16.259 33.64 16.18 60.779 43.319 76.959 76.959 16.26 33.805 16.26 77.616 16.26 165.24s0 131.43-16.26 165.24c-16.18 33.641-43.319 60.779-76.959 76.959-33.805 16.26-77.616 16.26-165.24 16.26h-180.18c-87.621 0-131.43 0-165.24-16.26-33.641-16.18-60.779-43.318-76.959-76.959-16.26-33.805-16.26-77.615-16.26-165.24z" fill="#000"/>
</svg>
