<svg width="1024" height="1024" viewBox="0 0 1024 1024" fill="none" xmlns="http://www.w3.org/2000/svg">
<g clip-path="url(#clip0_620_93)">
<path fill-rule="evenodd" clip-rule="evenodd" d="M250.525 274.342C277.039 272.519 310.01 272.519 353.017 272.519H671.886C714.899 272.519 747.874 272.519 774.389 274.343C762.963 262.06 749.273 251.92 733.941 244.546C706.124 231.167 670.075 231.167 597.975 231.167H426.938C354.839 231.167 318.789 231.167 290.972 244.546C275.641 251.92 261.951 262.059 250.525 274.342Z" fill="black"/>
<path fill-rule="evenodd" clip-rule="evenodd" d="M180.168 408.568C163.908 442.373 163.908 486.183 163.908 573.804C163.908 661.425 163.908 705.236 180.168 739.041C196.348 772.681 223.486 799.82 257.127 816C290.932 832.259 334.743 832.259 422.363 832.259H602.544C690.165 832.259 733.975 832.259 767.78 816C801.421 799.82 828.559 772.681 844.739 739.041C860.999 705.236 860.999 661.425 860.999 573.804C860.999 486.183 860.999 442.373 844.739 408.568C828.559 374.927 801.421 347.789 767.78 331.609C733.975 315.349 690.164 315.349 602.544 315.349H422.363C334.742 315.349 290.932 315.349 257.127 331.609C223.486 347.789 196.348 374.927 180.168 408.568ZM690.751 551.444C682.636 525.488 651.781 506.095 590.07 467.311L562.227 449.811C493.133 406.386 458.587 384.674 430.182 389.98C414.577 392.894 400.329 400.757 389.552 412.403C369.933 433.601 369.933 474.379 369.933 555.935V555.935L369.933 590.934C369.933 672.491 369.933 713.269 389.552 734.467C400.329 746.112 414.577 753.975 430.182 756.89C458.587 762.195 493.133 740.483 562.227 697.058L590.07 679.559C651.781 640.774 682.636 621.382 690.751 595.426C695.229 581.106 695.229 565.763 690.751 551.444Z" fill="black"/>
<path fill-rule="evenodd" clip-rule="evenodd" d="M315.15 194.965C344.448 190.398 383.04 190.398 440.421 190.398H584.481C641.871 190.398 680.467 190.398 709.766 194.967C699.368 181.38 685.863 170.331 670.257 162.824C647.752 152 618.587 152 560.257 152H464.658C406.328 152 377.162 152 354.658 162.824C339.052 170.33 325.549 181.378 315.15 194.965Z" fill="black"/>
</g>
<defs>
<clipPath id="clip0_620_93">
<rect width="1024" height="1024" fill="white"/>
</clipPath>
</defs>
</svg>
