<?xml version="1.0" encoding="UTF-8"?>
<svg fill="none" viewBox="0 0 1024 1024" xmlns="http://www.w3.org/2000/svg">
<path d="m294.19 327c0-56.393 0-84.59 10.135-106.48 10.906-23.558 29.825-42.477 53.383-53.383 21.892-10.135 50.089-10.135 106.48-10.135h94.455c56.394 0 84.59 0 106.48 10.135 23.559 10.906 42.477 29.825 53.384 53.383 10.134 21.892 10.134 50.089 10.134 106.48 0 56.394 0 84.59-10.134 106.48-10.907 23.559-29.825 42.478-53.384 53.384-21.892 10.134-50.088 10.134-106.48 10.134h-94.455c-56.394 0-84.591 0-106.48-10.134-23.558-10.906-42.477-29.825-53.383-53.384-10.135-21.892-10.135-50.088-10.135-106.48z" fill="#000"/>
</svg>
