<svg width="1024" height="1024" viewBox="0 0 1024 1024" fill="none" xmlns="http://www.w3.org/2000/svg">
<g clip-path="url(#clip0_2005_171)">
<path d="M559.349 152C617.679 152 646.845 152 669.35 162.824C691.744 173.596 709.811 191.662 720.582 214.057C731.406 236.561 731.406 265.727 731.406 324.058C731.406 382.388 731.406 411.553 720.582 434.058C709.811 456.452 691.744 474.519 669.35 485.29C646.845 496.114 617.68 496.114 559.35 496.114H463.751C405.421 496.114 376.255 496.114 353.75 485.29C331.355 474.519 313.289 456.452 302.518 434.058C291.693 411.553 291.693 382.388 291.693 324.058C291.693 265.727 291.693 236.561 302.518 214.057C313.289 191.662 331.355 173.596 353.75 162.824C376.255 152 405.421 152 463.751 152H559.349Z" fill="#0CBAF7" style="fill:#0CBAF7;fill:color(display-p3 0.0471 0.7294 0.9686);fill-opacity:1;"/>
</g>
<defs>
<clipPath id="clip0_2005_171">
<rect width="1024" height="1024" fill="white" style="fill:white;fill-opacity:1;"/>
</clipPath>
</defs>
</svg>
