<?xml version="1.0" encoding="UTF-8"?>
<svg viewBox="0 0 698 681" xmlns="http://www.w3.org/2000/svg">
<path d="m86.617 122.34c26.513-1.823 59.484-1.823 102.49-1.823h318.87c43.014 0 75.989 0 102.5 1.824-11.426-12.283-25.116-22.423-40.448-29.797-27.817-13.379-63.866-13.379-135.97-13.379h-171.04c-72.099 0-108.15 0-135.97 13.379-15.331 7.3739-29.021 17.513-40.447 29.796z" clip-rule="evenodd" fill="#0CBAF7" fill-rule="evenodd"/>
<path d="m16.26 256.57c-16.26 33.805-16.26 77.615-16.26 165.24s0 131.43 16.26 165.24c16.18 33.64 43.319 60.779 76.959 76.959 33.806 16.259 77.616 16.259 165.24 16.259h180.18c87.621 0 131.43 0 165.24-16.259 33.64-16.18 60.779-43.319 76.959-76.959 16.26-33.805 16.26-77.616 16.26-165.24s0-131.43-16.26-165.24c-16.18-33.641-43.319-60.779-76.959-76.959-33.805-16.26-77.616-16.26-165.24-16.26h-180.18c-87.621 0-131.43 0-165.24 16.26-33.64 16.18-60.779 43.318-76.959 76.959zm510.58 142.88c-8.115-25.956-38.971-45.349-100.68-84.133l-27.844-17.5c-69.093-43.425-103.64-65.137-132.04-59.831-15.604 2.914-29.852 10.777-40.629 22.423-19.619 21.198-19.619 61.976-19.619 143.53v34.999c0 81.557 0 122.34 19.619 143.53 10.777 11.645 25.025 19.508 40.629 22.423 28.405 5.305 62.952-16.407 132.04-59.832l27.844-17.499c61.71-38.785 92.566-58.177 100.68-84.133 4.477-14.32 4.477-29.663 0-43.982z" clip-rule="evenodd" fill="#0CBAF7" fill-rule="evenodd"/>
<path d="m151.24 42.965c29.298-4.5666 67.89-4.5666 125.27-4.5666h144.06c57.39 0 95.985 0 125.28 4.5687-10.398-13.588-23.903-24.637-39.509-32.143-22.505-10.824-51.67-10.824-110-10.824h-95.598c-58.33 0-87.496 0-110 10.824-15.606 7.5059-29.11 18.554-39.508 32.141z" clip-rule="evenodd" fill="#0CBAF7" fill-rule="evenodd"/>
</svg>