<svg width="16" height="16" viewBox="0 0 16 16" fill="none" xmlns="http://www.w3.org/2000/svg">
<g clip-path="url(#clip0_1142_351)">
<path fill-rule="evenodd" clip-rule="evenodd" d="M2.44336 3.15525C3.00624 3.11654 3.70622 3.11654 4.61928 3.11654H11.3889C12.3019 3.11654 13.0018 3.11654 13.5647 3.15524C13.3221 2.89455 13.0316 2.67933 12.7061 2.52281C12.1156 2.23877 11.3503 2.23877 9.81958 2.23877H6.18847C4.6578 2.23877 3.89247 2.23877 3.30191 2.52281C2.97649 2.67933 2.6859 2.89455 2.44336 3.15525Z" fill="black"/>
<path d="M9.91992 4.02637C11.7799 4.02637 12.7101 4.02596 13.4277 4.37109C14.1419 4.7146 14.718 5.29168 15.0615 6.00586C15.4065 6.72349 15.4062 7.65383 15.4062 9.51367C15.4062 11.3737 15.4067 12.3038 15.0615 13.0215C14.718 13.7356 14.1419 14.3118 13.4277 14.6553C12.7101 15.0004 11.7799 15 9.91992 15H6.09473C4.2349 15 3.30454 15.0003 2.58691 14.6553C1.87273 14.3118 1.29565 13.7357 0.952148 13.0215C0.607006 12.3038 0.607422 11.3736 0.607422 9.51367C0.607422 7.65397 0.607227 6.72347 0.952148 6.00586C1.29565 5.29168 1.87273 4.7146 2.58691 4.37109C3.30452 4.02617 4.23502 4.02637 6.09473 4.02637H9.91992ZM9.06348 6.88086C7.59663 5.95895 6.8628 5.49772 6.25977 5.61035C5.92861 5.67227 5.6262 5.83976 5.39746 6.08691C4.98119 6.53703 4.98145 7.40269 4.98145 9.13379V9.87695C4.98145 11.6081 4.98104 12.4738 5.39746 12.9238C5.62621 13.171 5.92858 13.3385 6.25977 13.4004C6.8628 13.513 7.59664 13.0518 9.06348 12.1299L9.6543 11.7578C10.9644 10.9344 11.6197 10.5227 11.792 9.97168C11.8869 9.66778 11.887 9.34197 11.792 9.03809C11.6196 8.48715 10.9642 8.07524 9.6543 7.25195L9.06348 6.88086Z" fill="black"/>
<path d="M9.02148 0.558105C10.2596 0.558105 10.8797 0.557821 11.3574 0.787598C11.6891 0.947193 11.9737 1.18405 12.1943 1.47314C11.5723 1.37619 10.7534 1.37354 9.53516 1.37354H6.47656C5.25894 1.37354 4.44023 1.37631 3.81836 1.47314C4.03936 1.18385 4.32529 0.947251 4.65723 0.787598C5.13491 0.558119 5.75442 0.558105 6.99219 0.558105H9.02148Z" fill="black"/>
</g>
<defs>
<clipPath id="clip0_1142_351">
<rect width="16" height="16" fill="white"/>
</clipPath>
</defs>
</svg>
