<?xml version="1.0" encoding="UTF-8"?>
<svg fill="none" viewBox="0 0 1024 1024" xmlns="http://www.w3.org/2000/svg">
<path d="m223 437c0-65.822 0-98.733 11.2-124.53 13.669-31.484 38.786-56.601 70.27-70.27 25.797-11.2 58.708-11.2 124.53-11.2h165c65.822 0 98.733 0 124.53 11.2 31.484 13.669 56.601 38.786 70.27 70.27 11.2 25.797 11.2 58.708 11.2 124.53s0 98.733-11.2 124.53c-13.669 31.484-38.786 56.601-70.27 70.27-25.797 11.2-58.708 11.2-124.53 11.2h-165c-65.822 0-98.733 0-124.53-11.2-31.484-13.669-56.601-38.786-70.27-70.27-11.2-25.797-11.2-58.708-11.2-124.53z" fill="#000"/>
</svg>
