<svg width="1024" height="1024" viewBox="0 0 1024 1024" fill="none" xmlns="http://www.w3.org/2000/svg">
<g clip-path="url(#clip0_2003_111)">
<path d="M570.528 466.487C628.277 502.739 657.152 520.864 666.612 544.279C674.186 563.024 674.186 583.977 666.612 602.721C657.152 626.136 628.277 644.262 570.528 680.513V680.513C506.056 720.985 473.82 741.222 447.211 738.551C425.96 736.418 406.514 725.665 393.409 708.801C377 687.684 377 649.623 377 573.5V573.5C377 497.378 377 459.316 393.409 438.199C406.514 421.335 425.96 410.582 447.211 408.449C473.82 405.779 506.056 426.015 570.528 466.487V466.487Z" fill="#000000" style="fill:#000000;fill:color(display-p3 0.0000 0.5115 0.6909);fill-opacity:1;"/>
</g>
<defs>
<clipPath id="clip0_2003_111">
<rect width="1024" height="1024" fill="white" style="fill:white;fill-opacity:1;"/>
</clipPath>
</defs>
</svg>
